<svg width="20" height="20" viewBox="0 0 20 20" fill="none" xmlns="http://www.w3.org/2000/svg">
<path d="M14.6079 6.47533C14.5495 6.46699 14.4912 6.46699 14.4329 6.47533C13.1412 6.43366 12.1162 5.37533 12.1162 4.07533C12.1162 2.75033 13.1912 1.66699 14.5245 1.66699C15.8495 1.66699 16.9329 2.74199 16.9329 4.07533C16.9245 5.37533 15.8995 6.43366 14.6079 6.47533Z" fill="white"/>
<path d="M17.3247 12.2503C16.3913 12.8753 15.083 13.1087 13.8747 12.9503C14.1913 12.267 14.358 11.5087 14.3663 10.7087C14.3663 9.87534 14.183 9.08367 13.833 8.392C15.0663 8.22534 16.3747 8.45867 17.3163 9.08367C18.633 9.95034 18.633 11.3753 17.3247 12.2503Z" fill="white"/>
<path d="M5.36647 6.47533C5.4248 6.46699 5.48314 6.46699 5.54147 6.47533C6.83314 6.43366 7.85814 5.37533 7.85814 4.07533C7.85814 2.74199 6.78314 1.66699 5.4498 1.66699C4.1248 1.66699 3.0498 2.74199 3.0498 4.07533C3.0498 5.37533 4.0748 6.43366 5.36647 6.47533Z" fill="white"/>
<path d="M5.45794 10.7079C5.45794 11.5162 5.63294 12.2829 5.94961 12.9745C4.77461 13.0995 3.54961 12.8495 2.64961 12.2579C1.33294 11.3829 1.33294 9.95785 2.64961 9.08285C3.54128 8.48285 4.79961 8.24118 5.98294 8.37452C5.64128 9.07452 5.45794 9.86618 5.45794 10.7079Z" fill="white"/>
<path d="M10.1 13.225C10.0333 13.2167 9.95833 13.2167 9.88333 13.225C8.35 13.175 7.125 11.9167 7.125 10.3667C7.13333 8.78333 8.40833 7.5 10 7.5C11.5833 7.5 12.8667 8.78333 12.8667 10.3667C12.8583 11.9167 11.6417 13.175 10.1 13.225Z" fill="white"/>
<path d="M7.39199 14.9502C6.13366 15.7919 6.13366 17.1752 7.39199 18.0085C8.82533 18.9669 11.1753 18.9669 12.6087 18.0085C13.867 17.1669 13.867 15.7835 12.6087 14.9502C11.1837 13.9919 8.83366 13.9919 7.39199 14.9502Z" fill="white"/>
</svg>
