<svg width="20" height="20" viewBox="0 0 20 20" fill="none" xmlns="http://www.w3.org/2000/svg">
<path d="M18.125 6.66673C18.125 7.0084 17.8417 7.29173 17.5 7.29173H2.5C2.15833 7.29173 1.875 7.0084 1.875 6.66673C1.875 6.32507 2.15833 6.04173 2.5 6.04173H3.35L3.66667 4.5334C3.96667 3.07507 4.59167 1.7334 7.075 1.7334H12.925C15.4083 1.7334 16.0333 3.07507 16.3333 4.5334L16.65 6.04173H17.5C17.8417 6.04173 18.125 6.32507 18.125 6.66673Z" fill="white"/>
<path d="M18.483 11.3837C18.358 10.0087 17.9913 8.54199 15.3163 8.54199H4.683C2.008 8.54199 1.64966 10.0087 1.51633 11.3837L1.04966 16.4587C0.991331 17.092 1.19966 17.7253 1.633 18.2003C2.07466 18.6837 2.69966 18.9587 3.36633 18.9587H4.933C6.283 18.9587 6.54133 18.1837 6.708 17.6753L6.87466 17.1753C7.06633 16.6003 7.11633 16.4587 7.86633 16.4587H12.133C12.883 16.4587 12.908 16.542 13.1247 17.1753L13.2913 17.6753C13.458 18.1837 13.7163 18.9587 15.0663 18.9587H16.633C17.2913 18.9587 17.9247 18.6837 18.3663 18.2003C18.7997 17.7253 19.008 17.092 18.9497 16.4587L18.483 11.3837ZM7.49966 13.1253H4.99966C4.658 13.1253 4.37466 12.842 4.37466 12.5003C4.37466 12.1587 4.658 11.8753 4.99966 11.8753H7.49966C7.84133 11.8753 8.12466 12.1587 8.12466 12.5003C8.12466 12.842 7.84133 13.1253 7.49966 13.1253ZM14.9997 13.1253H12.4997C12.158 13.1253 11.8747 12.842 11.8747 12.5003C11.8747 12.1587 12.158 11.8753 12.4997 11.8753H14.9997C15.3413 11.8753 15.6247 12.1587 15.6247 12.5003C15.6247 12.842 15.3413 13.1253 14.9997 13.1253Z" fill="white"/>
</svg>
