<svg width="20" height="20" viewBox="0 0 20 20" fill="none" xmlns="http://www.w3.org/2000/svg">
<path d="M16.7085 8.85879L12.8168 7.18379L11.9501 6.81712C11.8168 6.75046 11.7001 6.57546 11.7001 6.42546V3.87546C11.7001 3.07546 11.1085 2.12546 10.3918 1.75879C10.1418 1.63379 9.8418 1.63379 9.5918 1.75879C8.88346 2.12546 8.2918 3.08379 8.2918 3.88379V6.43379C8.2918 6.58379 8.17513 6.75879 8.0418 6.82546L3.2918 8.86712C2.7668 9.08379 2.3418 9.74212 2.3418 10.3088V11.4088C2.3418 12.1171 2.87513 12.4671 3.53346 12.1838L7.70846 10.3838C8.03346 10.2421 8.30013 10.4171 8.30013 10.7755V11.7005V13.2005C8.30013 13.3921 8.1918 13.6671 8.05846 13.8005L6.12513 15.7421C5.92513 15.9421 5.83346 16.3338 5.92513 16.6171L6.30013 17.7505C6.45013 18.2421 7.00846 18.4755 7.4668 18.2421L9.45013 16.5755C9.75013 16.3171 10.2418 16.3171 10.5418 16.5755L12.5251 18.2421C12.9835 18.4671 13.5418 18.2421 13.7085 17.7505L14.0835 16.6171C14.1751 16.3421 14.0835 15.9421 13.8835 15.7421L11.9501 13.8005C11.8085 13.6671 11.7001 13.3921 11.7001 13.2005V10.7755C11.7001 10.4171 11.9585 10.2505 12.2918 10.3838L16.4668 12.1838C17.1251 12.4671 17.6585 12.1171 17.6585 11.4088V10.3088C17.6585 9.74212 17.2335 9.08379 16.7085 8.85879Z" fill="white"/>
</svg>
