<svg width="25" height="24" viewBox="0 0 25 24" fill="none" xmlns="http://www.w3.org/2000/svg">
<path d="M21.99 7.80863V7.81V16.19C21.99 17.9106 21.4791 19.2238 20.5964 20.1064C19.7138 20.9891 18.4006 21.5 16.68 21.5H8.31C6.58945 21.5 5.27634 20.9891 4.39377 20.1054C3.51114 19.2217 3 17.9059 3 16.18V7.81C3 6.08944 3.51093 4.77618 4.39355 3.89355C5.27618 3.01093 6.58944 2.5 8.31 2.5H16.69C18.4107 2.5 19.7237 3.01097 20.605 3.89333C21.4861 4.77559 21.9947 6.08838 21.99 7.80863ZM9.24 17.85C10.1633 17.85 10.91 17.1089 10.91 16.19V12.93C10.91 12.0111 10.1633 11.27 9.24 11.27C8.32386 11.27 7.58 12.0139 7.58 12.93V16.19C7.58 17.1061 8.32386 17.85 9.24 17.85ZM15.76 17.85C16.6761 17.85 17.42 17.1061 17.42 16.19V7.81C17.42 6.89386 16.6761 6.15 15.76 6.15C14.8367 6.15 14.09 6.89106 14.09 7.81V16.19C14.09 17.1089 14.8367 17.85 15.76 17.85Z" fill="#005EE8" stroke="#005EE8"/>
</svg>
