<svg width="36" height="36" viewBox="0 0 36 36" fill="none" xmlns="http://www.w3.org/2000/svg">
<rect width="36" height="36" rx="18" fill="#12B76A"/>
<path d="M21.4915 9.66666H14.5082C11.4748 9.66666 9.6665 11.475 9.6665 14.5083V21.4833C9.6665 24.525 11.4748 26.3333 14.5082 26.3333H21.4832C24.5165 26.3333 26.3248 24.525 26.3248 21.4917V14.5083C26.3332 11.475 24.5248 9.66666 21.4915 9.66666ZM22.3832 16.3L20.4582 18.7833C20.2165 19.0917 19.8748 19.2917 19.4832 19.3333C19.0915 19.3833 18.7082 19.275 18.3998 19.0333L16.8748 17.8333C16.8165 17.7833 16.7498 17.7833 16.7165 17.7917C16.6832 17.7917 16.6248 17.8083 16.5748 17.875L14.5915 20.45C14.4665 20.6083 14.2832 20.6917 14.0998 20.6917C13.9665 20.6917 13.8332 20.65 13.7165 20.5583C13.4415 20.35 13.3915 19.9583 13.5998 19.6833L15.5832 17.1083C15.8248 16.8 16.1665 16.6 16.5582 16.55C16.9415 16.5 17.3332 16.6083 17.6415 16.85L19.1665 18.05C19.2248 18.1 19.2832 18.1 19.3248 18.0917C19.3582 18.0917 19.4165 18.075 19.4665 18.0083L21.3915 15.525C21.5998 15.25 21.9998 15.2 22.2665 15.4167C22.5415 15.6417 22.5915 16.0333 22.3832 16.3Z" fill="white"/>
</svg>
