<svg width="65" height="64" viewBox="0 0 65 64" fill="none" xmlns="http://www.w3.org/2000/svg">
<rect x="4.5" y="4" width="56" height="56" rx="28" fill="#32D583"/>
<rect x="4.5" y="4" width="56" height="56" rx="28" stroke="#12B76A" stroke-width="8"/>
<path d="M38.12 30.7496C37.69 30.7496 37.35 30.3996 37.35 29.9796C37.35 29.6096 36.98 28.8396 36.36 28.1696C35.75 27.5196 35.08 27.1396 34.52 27.1396C34.09 27.1396 33.75 26.7896 33.75 26.3696C33.75 25.9496 34.1 25.5996 34.52 25.5996C35.52 25.5996 36.57 26.1396 37.49 27.1096C38.35 28.0196 38.9 29.1496 38.9 29.9696C38.9 30.3996 38.55 30.7496 38.12 30.7496Z" fill="white"/>
<path d="M41.7298 30.75C41.2998 30.75 40.9598 30.4 40.9598 29.98C40.9598 26.43 38.0698 23.55 34.5298 23.55C34.0998 23.55 33.7598 23.2 33.7598 22.78C33.7598 22.36 34.0998 22 34.5198 22C38.9198 22 42.4998 25.58 42.4998 29.98C42.4998 30.4 42.1498 30.75 41.7298 30.75Z" fill="white"/>
<path d="M31.55 34.95L29.7 36.8C29.31 37.19 28.69 37.19 28.29 36.81C28.18 36.7 28.07 36.6 27.96 36.49C26.93 35.45 26 34.36 25.17 33.22C24.35 32.08 23.69 30.94 23.21 29.81C22.74 28.67 22.5 27.58 22.5 26.54C22.5 25.86 22.62 25.21 22.86 24.61C23.1 24 23.48 23.44 24.01 22.94C24.65 22.31 25.35 22 26.09 22C26.37 22 26.65 22.06 26.9 22.18C27.16 22.3 27.39 22.48 27.57 22.74L29.89 26.01C30.07 26.26 30.2 26.49 30.29 26.71C30.38 26.92 30.43 27.13 30.43 27.32C30.43 27.56 30.36 27.8 30.22 28.03C30.09 28.26 29.9 28.5 29.66 28.74L28.9 29.53C28.79 29.64 28.74 29.77 28.74 29.93C28.74 30.01 28.75 30.08 28.77 30.16C28.8 30.24 28.83 30.3 28.85 30.36C29.03 30.69 29.34 31.12 29.78 31.64C30.23 32.16 30.71 32.69 31.23 33.22C31.33 33.32 31.44 33.42 31.54 33.52C31.94 33.91 31.95 34.55 31.55 34.95Z" fill="white"/>
<path d="M42.4701 38.33C42.4701 38.61 42.4201 38.9 42.3201 39.18C42.2901 39.26 42.2601 39.34 42.2201 39.42C42.0501 39.78 41.8301 40.12 41.5401 40.44C41.0501 40.98 40.5101 41.37 39.9001 41.62C39.8901 41.62 39.8801 41.63 39.8701 41.63C39.2801 41.87 38.6401 42 37.9501 42C36.9301 42 35.8401 41.76 34.6901 41.27C33.5401 40.78 32.3901 40.12 31.2501 39.29C30.8601 39 30.4701 38.71 30.1001 38.4L33.3701 35.13C33.6501 35.34 33.9001 35.5 34.1101 35.61C34.1601 35.63 34.2201 35.66 34.2901 35.69C34.3701 35.72 34.4501 35.73 34.5401 35.73C34.7101 35.73 34.8401 35.67 34.9501 35.56L35.7101 34.81C35.9601 34.56 36.2001 34.37 36.4301 34.25C36.6601 34.11 36.8901 34.04 37.1401 34.04C37.3301 34.04 37.5301 34.08 37.7501 34.17C37.9701 34.26 38.2001 34.39 38.4501 34.56L41.7601 36.91C42.0201 37.09 42.2001 37.3 42.3101 37.55C42.4101 37.8 42.4701 38.05 42.4701 38.33Z" fill="white"/>
</svg>
