<svg width="65" height="64" viewBox="0 0 65 64" fill="none" xmlns="http://www.w3.org/2000/svg">
<rect x="4.5" y="4" width="56" height="56" rx="28" fill="#F97066"/>
<rect x="4.5" y="4" width="56" height="56" rx="28" stroke="#F04438" stroke-width="8"/>
<path d="M31.1 24.15C31.1 24.34 30.94 24.5 30.75 24.5H29.62C27.46 24.5 25.7 26.26 25.7 28.42V37.65C25.7 37.84 25.54 38 25.35 38H24.65C23.46 38 22.5 37.04 22.5 35.85V24.15C22.5 22.96 23.46 22 24.65 22H28.95C30.14 22 31.1 22.96 31.1 24.15Z" fill="white"/>
<path d="M42.4999 24.15V35.85C42.4999 37.04 41.5399 38 40.3499 38H39.7199C39.5299 38 39.3699 37.84 39.3699 37.65V28.42C39.3699 26.26 37.6099 24.5 35.4499 24.5H34.2499C34.0599 24.5 33.8999 24.34 33.8999 24.15C33.8999 22.96 34.8599 22 36.0499 22H40.3499C41.5399 22 42.4999 22.96 42.4999 24.15Z" fill="white"/>
<path d="M35.4502 26H29.6202C28.2802 26 27.2002 27.08 27.2002 28.42V39.58C27.2002 40.92 28.2802 42 29.6202 42H31.2502C31.5302 42 31.7502 41.78 31.7502 41.5V39C31.7502 38.59 32.0902 38.25 32.5002 38.25C32.9102 38.25 33.2502 38.59 33.2502 39V41.5C33.2502 41.78 33.4702 42 33.7502 42H35.4602C36.7902 42 37.8702 40.92 37.8702 39.59V28.42C37.8702 27.08 36.7902 26 35.4502 26ZM34.5002 34.75H30.5002C30.0902 34.75 29.7502 34.41 29.7502 34C29.7502 33.59 30.0902 33.25 30.5002 33.25H34.5002C34.9102 33.25 35.2502 33.59 35.2502 34C35.2502 34.41 34.9102 34.75 34.5002 34.75ZM34.5002 31.75H30.5002C30.0902 31.75 29.7502 31.41 29.7502 31C29.7502 30.59 30.0902 30.25 30.5002 30.25H34.5002C34.9102 30.25 35.2502 30.59 35.2502 31C35.2502 31.41 34.9102 31.75 34.5002 31.75Z" fill="white"/>
</svg>
