<svg width="20" height="20" viewBox="0 0 20 20" fill="none" xmlns="http://www.w3.org/2000/svg">
<path d="M9.94967 1.84185L7.94134 6.51685H5.93301C5.59967 6.51685 5.27467 6.54185 4.95801 6.60852L5.79134 4.60852L5.82467 4.53352L5.87467 4.40018C5.89967 4.34185 5.91634 4.29185 5.94134 4.25018C6.90801 2.00852 7.99134 1.30852 9.94967 1.84185Z" fill="white"/>
<path d="M15.6079 6.74128L15.5913 6.73294C15.0913 6.59128 14.5829 6.51628 14.0663 6.51628H8.84961L10.7246 2.15794L10.7496 2.09961C10.8663 2.14128 10.9913 2.19961 11.1163 2.24128L12.9579 3.01628C13.9829 3.44128 14.6996 3.88294 15.1413 4.41628C15.2163 4.51628 15.2829 4.60794 15.3496 4.71628C15.4246 4.83294 15.4829 4.94961 15.5163 5.07461C15.5496 5.14961 15.5746 5.21628 15.5913 5.29128C15.7163 5.71628 15.7246 6.19961 15.6079 6.74128Z" fill="white"/>
<path d="M15.2412 7.93327C14.8662 7.82494 14.4745 7.7666 14.0662 7.7666H5.93288C5.36621 7.7666 4.83288 7.87494 4.33288 8.0916C2.88288 8.7166 1.86621 10.1583 1.86621 11.8333V13.4583C1.86621 13.6583 1.88288 13.8499 1.90788 14.0499C2.09121 16.6999 3.50788 18.1166 6.15788 18.2916C6.34954 18.3166 6.54121 18.3333 6.74954 18.3333H13.2495C16.3329 18.3333 17.9579 16.8666 18.1162 13.9499C18.1245 13.7916 18.1329 13.6249 18.1329 13.4583V11.8333C18.1329 9.9916 16.9079 8.4416 15.2412 7.93327ZM12.0829 13.4916H10.6245V14.9999C10.6245 15.3416 10.3412 15.6249 9.99954 15.6249C9.65788 15.6249 9.37454 15.3416 9.37454 14.9999V13.4916H7.91621C7.57454 13.4916 7.29121 13.2166 7.29121 12.8666C7.29121 12.5249 7.57454 12.2416 7.91621 12.2416H9.37454V10.8333C9.37454 10.4916 9.65788 10.2083 9.99954 10.2083C10.3412 10.2083 10.6245 10.4916 10.6245 10.8333V12.2416H12.0829C12.4245 12.2416 12.7079 12.5249 12.7079 12.8666C12.7079 13.2166 12.4245 13.4916 12.0829 13.4916Z" fill="white"/>
</svg>
