<svg width="41" height="40" viewBox="0 0 41 40" fill="none" xmlns="http://www.w3.org/2000/svg">
<rect x="0.5" width="40" height="40" rx="20" fill="#F2F4F7"/>
<path d="M16.1331 28.3337H24.8665C27.1665 28.3337 28.0831 26.9253 28.1915 25.2087L28.6248 18.3253C28.7415 16.5253 27.3081 15.0003 25.4998 15.0003C24.9915 15.0003 24.5248 14.7087 24.2915 14.2587L23.6915 13.0503C23.3081 12.292 22.3081 11.667 21.4581 11.667H19.5498C18.6915 11.667 17.6915 12.292 17.3081 13.0503L16.7081 14.2587C16.4748 14.7087 16.0081 15.0003 15.4998 15.0003C13.6915 15.0003 12.2581 16.5253 12.3748 18.3253L12.8081 25.2087C12.9081 26.9253 13.8331 28.3337 16.1331 28.3337Z" stroke="#101828" stroke-width="1.5" stroke-linecap="round" stroke-linejoin="round"/>
<path d="M19.25 16.667H21.75" stroke="#101828" stroke-width="1.5" stroke-linecap="round" stroke-linejoin="round"/>
<path d="M20.5003 24.9997C21.992 24.9997 23.2087 23.783 23.2087 22.2913C23.2087 20.7997 21.992 19.583 20.5003 19.583C19.0087 19.583 17.792 20.7997 17.792 22.2913C17.792 23.783 19.0087 24.9997 20.5003 24.9997Z" stroke="#101828" stroke-width="1.5" stroke-linecap="round" stroke-linejoin="round"/>
</svg>
