<svg width="63" height="62" viewBox="0 0 63 62" fill="none" xmlns="http://www.w3.org/2000/svg">
<path d="M23.0049 6.80108C23.0049 3.59723 25.6021 1 28.806 1H52.0103C55.2141 1 57.8114 3.59723 57.8114 6.80108V41.6076C57.8114 44.8114 55.2141 47.4087 52.0103 47.4087H45.6291H28.806C25.6021 47.4087 23.0049 44.8114 23.0049 41.6076V6.80108Z" fill="white" stroke="#D0D5DD" stroke-width="1.15636" stroke-linejoin="round"/>
<path d="M10.5742 11.7737C10.5742 8.56988 13.1715 5.97266 16.3753 5.97266H46.2094C49.4133 5.97266 52.0105 8.56989 52.0105 11.7737V47.6161C52.0105 51.621 48.764 54.8675 44.7592 54.8675C40.7544 54.8675 37.5078 51.621 37.5078 47.6161V43.2653H10.5742V11.7737Z" fill="white" stroke="#D0D5DD" stroke-width="1.15636" stroke-linejoin="round"/>
<path d="M14.7179 55.6961H44.5521L43.2989 55.3045C40.0538 54.2904 37.7573 51.3972 37.5061 48.0067L37.0935 42.4365H10.9887H9.74557C7.9148 42.4365 6.43066 43.9207 6.43066 45.7514V47.4089C6.43066 51.9858 10.141 55.6961 14.7179 55.6961Z" fill="#D0D5DD"/>
<path fill-rule="evenodd" clip-rule="evenodd" d="M2.49422 49.0674C3.29518 49.0674 3.94449 49.7167 3.94449 50.5177V50.7248C3.94449 54.8441 7.28379 58.1834 11.403 58.1834H13.3091C14.0872 58.1834 14.7179 58.8141 14.7179 59.5922V59.5922C14.7179 60.3703 14.0872 61.001 13.3091 61.001H11.403C5.45302 61.001 1.04395 56.6748 1.04395 50.7248V50.5177C1.04395 49.7167 1.69325 49.0674 2.49422 49.0674V49.0674Z" stroke="#D0D5DD" stroke-width="1.15636" stroke-linejoin="round"/>
<path d="M16.376 28.7626C16.376 28.0761 16.9325 27.5195 17.6191 27.5195H30.05C30.7365 27.5195 31.293 28.0761 31.293 28.7626V28.7626C31.293 29.4492 30.7365 30.0057 30.05 30.0057H17.6191C16.9325 30.0057 16.376 29.4492 16.376 28.7626V28.7626Z" stroke="#D0D5DD" stroke-width="1.15636" stroke-linejoin="round"/>
<path d="M22.8516 23.601C22.7156 23.601 22.6161 23.5694 22.5529 23.5063C22.4898 23.4431 22.4582 23.3436 22.4582 23.2076V22.6395C21.895 22.6201 21.4021 22.5497 20.9796 22.4283C20.562 22.302 20.2416 22.1539 20.0182 21.984C19.7997 21.814 19.6904 21.6538 19.6904 21.5033C19.6904 21.377 19.7366 21.2216 19.8288 21.0371C19.9259 20.8526 20.04 20.6948 20.1712 20.5637C20.3023 20.4277 20.4115 20.3597 20.4989 20.3597C20.5572 20.3597 20.6786 20.4083 20.8631 20.5054C21.1253 20.6365 21.3803 20.7433 21.6279 20.8259C21.8804 20.9084 22.1572 20.9497 22.4582 20.9497V18.8156C21.9095 18.6116 21.4652 18.4198 21.1253 18.2401C20.7903 18.0556 20.4965 17.7861 20.244 17.4316C19.9963 17.0723 19.8725 16.6062 19.8725 16.0332C19.8725 15.4893 19.9891 15.0304 20.2221 14.6565C20.4601 14.2778 20.7733 13.9864 21.1617 13.7825C21.5551 13.5786 21.9872 13.4499 22.4582 13.3965V12.9886C22.4582 12.8526 22.4874 12.7555 22.5457 12.6972C22.6039 12.6341 22.6913 12.6025 22.8079 12.6025C22.9487 12.6025 23.0482 12.6317 23.1065 12.6899C23.1648 12.7482 23.1939 12.8478 23.1939 12.9886V13.3892C23.5872 13.4037 23.9417 13.4572 24.2573 13.5494C24.5778 13.6417 24.8255 13.7534 25.0003 13.8845C25.1799 14.0156 25.2698 14.1467 25.2698 14.2778C25.2698 14.3943 25.2309 14.5449 25.1532 14.7294C25.0755 14.9091 24.9808 15.0669 24.8692 15.2028C24.7623 15.3388 24.6604 15.4068 24.5632 15.4068C24.5244 15.4068 24.4443 15.3825 24.3229 15.3339C24.1481 15.266 23.9757 15.2101 23.8057 15.1664C23.6406 15.1227 23.4367 15.096 23.1939 15.0863V17.0529C23.728 17.286 24.1529 17.4948 24.4686 17.6793C24.7842 17.8638 25.061 18.1285 25.2989 18.4732C25.5368 18.8131 25.6558 19.2453 25.6558 19.7697C25.6558 20.3767 25.5417 20.8866 25.3135 21.2993C25.0901 21.7072 24.7939 22.018 24.4249 22.2316C24.0558 22.4404 23.6455 22.5691 23.1939 22.6177V23.2076C23.1939 23.3436 23.1648 23.4431 23.1065 23.5063C23.0531 23.5694 22.9681 23.601 22.8516 23.601ZM22.4582 15.1591C22.2057 15.2223 22.0309 15.3194 21.9338 15.4505C21.8367 15.5767 21.7881 15.7078 21.7881 15.8438C21.7881 16.0283 21.844 16.1886 21.9557 16.3245C22.0722 16.4605 22.2397 16.5916 22.4582 16.7178V15.1591ZM23.1939 20.804C23.3639 20.736 23.4998 20.6365 23.6018 20.5054C23.7038 20.3743 23.7547 20.2092 23.7547 20.0101C23.7547 19.6605 23.5678 19.3788 23.1939 19.1652V20.804Z" fill="#D0D5DD"/>
<rect x="16.376" y="34.1504" width="27.348" height="2.48618" rx="1.24309" stroke="#D0D5DD" stroke-width="1.15636" stroke-linejoin="round"/>
<ellipse cx="51.1826" cy="11.7734" rx="10.7734" ry="10.7734" fill="white" stroke="#D0D5DD" stroke-width="1.15636"/>
<path d="M49.9395 6.38664C49.9395 5.7001 50.496 5.14355 51.1825 5.14355V5.14355C51.8691 5.14355 52.4256 5.7001 52.4256 6.38664V11.359C52.4256 12.0455 51.8691 12.6021 51.1825 12.6021V12.6021C50.496 12.6021 49.9395 12.0455 49.9395 11.359V6.38664Z" stroke="#D0D5DD" stroke-width="1.15636" stroke-linejoin="round"/>
<path d="M49.9395 17.1602C49.9395 17.8468 50.496 18.4033 51.1825 18.4033V18.4033C51.8691 18.4033 52.4256 17.8468 52.4256 17.1602V17.1602C52.4256 16.4737 51.8691 15.9171 51.1825 15.9171V15.9171C50.496 15.9171 49.9395 16.4737 49.9395 17.1602V17.1602Z" stroke="#D0D5DD" stroke-width="1.15636" stroke-linejoin="round"/>
</svg>
