<svg width="16" height="16" viewBox="0 0 16 16" fill="none" xmlns="http://www.w3.org/2000/svg">
<path d="M10.793 1.33301H5.20634C2.77967 1.33301 1.33301 2.77967 1.33301 5.20634V10.7863C1.33301 13.2197 2.77967 14.6663 5.20634 14.6663H10.7863C13.213 14.6663 14.6597 13.2197 14.6597 10.793V5.20634C14.6663 2.77967 13.2197 1.33301 10.793 1.33301ZM11.253 9.55301C11.253 9.61301 11.2397 9.67301 11.2197 9.73301C11.173 9.84634 11.0797 9.93967 10.9663 9.98634C10.9063 10.013 10.8463 10.0197 10.7863 10.0197H9.54634C9.28634 10.0197 9.07967 9.81301 9.07967 9.55301C9.07967 9.29301 9.28634 9.08634 9.54634 9.08634H9.66634L8.25967 7.67967L7.57967 8.69301C7.49967 8.80634 7.37967 8.88634 7.23967 8.89967C7.09967 8.91301 6.96634 8.86634 6.86634 8.76634L4.87967 6.77967C4.69967 6.59967 4.69967 6.30634 4.87967 6.11967C5.05967 5.93301 5.35301 5.93967 5.53967 6.11967L7.12634 7.70634L7.80634 6.69301C7.88634 6.57967 8.00634 6.49967 8.14634 6.48634C8.29301 6.47301 8.41967 6.51967 8.51967 6.61967L10.333 8.43301V8.31301C10.333 8.05301 10.5397 7.84634 10.7997 7.84634C11.0597 7.84634 11.2663 8.05301 11.2663 8.31301V9.55301H11.253Z" fill="#D0D5DD"/>
</svg>
