<svg width="143" height="24" viewBox="0 0 143 24" fill="none" xmlns="http://www.w3.org/2000/svg">
<path d="M132.488 12.9303V10.7909C132.488 6.90943 132.793 4.12822 133.404 2.47784C134.016 0.827451 135.177 0.0022583 136.919 0.0022583C138.661 0.0022583 139.823 0.827451 140.434 2.47784C141.045 4.12822 141.351 6.90943 141.351 10.7909V12.9303C141.351 16.8729 141.045 19.6846 140.434 21.3961C139.823 23.1382 138.661 23.994 136.919 23.994C135.177 23.994 134.016 23.1382 133.404 21.3961C132.793 19.6846 132.488 16.8729 132.488 12.9303Z" fill="white"/>
<path d="M115.97 0.00141029C117.559 -0.0291538 118.66 0.45985 119.24 1.43786C119.821 2.44643 120.157 4.21906 120.249 6.78633C120.279 8.0394 120.188 9.0174 120.004 9.75091C120.891 7.76434 122.327 6.75577 124.283 6.75577C126.545 6.78633 128.256 7.64208 129.387 9.32303C130.518 11.004 131.099 12.96 131.099 15.1911C131.099 19.6227 129.265 23.9931 124.13 23.9931C123.03 23.9931 122.022 23.7181 121.105 23.1679C120.188 22.6178 119.607 21.762 119.363 20.6312C119.332 21.273 119.24 21.8537 118.812 22.6484C118.385 23.443 117.407 23.9931 115.97 23.9931C114.075 23.9931 112.853 23.1985 112.272 21.6092C111.691 20.02 111.386 16.9943 111.386 12.5016V9.62866C111.386 6.05282 111.722 3.54668 112.425 2.1408C113.128 0.734915 114.289 0.0319726 115.97 0.00141029ZM120.035 14.0908C119.454 14.6104 119.454 15.4967 120.035 16.0774C120.616 16.6581 121.471 16.6581 122.052 16.0774C122.633 15.4967 122.633 14.6104 122.052 14.0602C121.471 13.5101 120.616 13.5101 120.035 14.0908Z" fill="white"/>
<path d="M91.5044 15.2832C91.5044 12.8382 92.0545 10.7905 93.1853 9.17066C94.2856 7.55084 95.936 6.72565 98.1365 6.72565C100.245 6.72565 101.987 7.70365 102.476 9.50685C102.874 7.64253 103.974 6.72565 105.808 6.72565C106.755 6.72565 107.55 7.00071 108.1 7.3369C108.65 7.70365 109.078 8.43716 109.353 8.95672C109.628 9.47629 109.842 10.5765 109.934 11.1572C109.964 11.4629 110.025 11.8602 110.056 12.3797C110.117 13.5106 110.087 13.6328 110.087 14.7025C110.087 14.8248 110.087 14.9164 110.087 14.9776C110.087 17.7893 109.903 19.7759 109.536 20.9679C108.895 22.985 107.642 23.9936 105.808 23.9936C104.096 23.9936 103.118 23.2906 102.66 21.4263C101.896 23.1378 100.398 23.9936 98.1365 23.9936C95.8749 23.9936 94.1939 23.1989 93.1242 21.5791C92.0545 19.9593 91.5044 17.881 91.5044 15.2832ZM99.8174 13.8773C99.2368 14.458 99.2368 15.3138 99.8174 15.8639C100.398 16.414 101.254 16.414 101.835 15.8639C102.415 15.3138 102.415 14.458 101.835 13.8773C101.254 13.2966 100.398 13.2966 99.8174 13.8773Z" fill="white"/>
<path d="M71.9587 12.9303V10.7909C71.9587 6.90943 72.2644 4.12822 72.8756 2.47784C73.4869 0.827451 74.6483 0.0022583 76.3903 0.0022583C77.8879 0.0022583 79.0187 0.644074 79.5994 1.46927C79.8745 1.86658 80.119 2.41671 80.3024 3.05853C80.6385 4.40329 80.6691 5.25904 80.6997 6.75661L80.608 12.8692C80.6385 13.1137 80.6691 13.1442 80.6997 12.9608C80.9136 11.4327 81.1581 10.363 81.4026 9.7212C82.1972 7.58181 83.542 6.51211 85.4675 6.51211C86.4149 6.51211 87.2707 6.81774 87.9736 7.42899C88.6765 8.04025 89.0433 8.80431 89.0433 9.7212C89.0433 10.9743 88.5848 11.9523 87.668 12.6858C86.7511 13.4193 85.6508 13.9083 84.3672 14.1222C85.9259 14.764 86.8428 15.2225 88.1264 16.1699C89.41 17.1174 90.113 18.401 90.113 19.8986C90.113 21.0905 89.6545 22.0685 88.7377 22.8326C87.8208 23.5967 86.8122 23.994 85.712 23.994C82.9613 23.994 81.2192 21.335 80.5163 16.0171C80.5163 16.5978 80.5163 16.934 80.5163 17.0868C80.5163 17.2396 80.5163 17.6064 80.4857 18.1871C80.4552 18.7678 80.4246 19.1956 80.394 19.4096C80.3635 19.6541 80.3024 20.0208 80.2107 20.5404C80.0273 21.549 79.7828 21.824 79.3549 22.5575C78.7131 23.5661 77.8268 23.8717 76.3903 23.994C74.6483 23.994 73.4869 23.1382 72.8756 21.3961C72.2644 19.6846 71.9587 16.8729 71.9587 12.9303Z" fill="white"/>
<path d="M55.1816 15.2527C55.1816 12.5937 56.0068 10.5155 57.6572 8.98735C59.3076 7.48978 61.5387 6.72571 64.3199 6.72571C65.8786 6.72571 67.2233 7.0619 68.3236 7.73428C69.4239 8.40666 69.974 9.47635 69.974 10.9434C69.974 11.7991 69.7295 12.5632 69.2405 13.2661C68.7515 13.9691 68.1097 14.3358 67.2845 14.3358C66.6732 14.3358 65.848 13.8774 65.3896 13.8774C64.5949 13.8774 64.1976 14.2747 64.1976 15.0388C64.1976 15.8945 64.7783 16.2918 65.3896 16.2918C65.7563 16.2918 66.6121 15.7417 67.5595 15.7417C69.6378 15.7417 70.7686 17.2393 70.7686 19.287C70.7686 21.029 69.9129 22.3432 68.5987 23.0156C67.2539 23.688 65.8786 23.9936 64.3199 23.9936C58.2379 23.9936 55.1816 21.0902 55.1816 15.2527Z" fill="white"/>
<path d="M34.7073 15.2833C34.7073 12.8382 35.2574 10.7905 36.3882 9.17072C37.4885 7.5509 39.1389 6.72571 41.3394 6.72571C43.4482 6.72571 45.1903 7.70371 45.6793 9.50691C46.0766 7.64259 47.1769 6.72571 49.0106 6.72571C49.9581 6.72571 50.7527 7.00077 51.3028 7.33696C51.8529 7.70371 52.2808 8.43722 52.5559 8.95678C52.831 9.47635 53.0449 10.5766 53.1366 11.1573C53.1671 11.4629 53.2283 11.8602 53.2588 12.3798C53.32 13.5106 53.2894 13.6329 53.2894 14.7026C53.2894 14.8248 53.2894 14.9165 53.2894 14.9776C53.2894 17.7894 53.106 19.776 52.7393 20.9679C52.0974 22.9851 50.8444 23.9936 49.0106 23.9936C47.2991 23.9936 46.3211 23.2907 45.8627 21.4264C45.0986 23.1379 43.601 23.9936 41.3394 23.9936C39.0777 23.9936 37.3968 23.199 36.3271 21.5792C35.2574 19.9594 34.7073 17.8811 34.7073 15.2833ZM43.0203 13.8774C42.4396 14.4581 42.4396 15.3138 43.0203 15.864C43.601 16.4141 44.4568 16.4141 45.0375 15.864C45.6182 15.3138 45.6182 14.4581 45.0375 13.8774C44.4568 13.2967 43.601 13.2967 43.0203 13.8774Z" fill="white"/>
<path d="M22.5483 6.7257C25.085 6.7257 25.9102 8.22327 26.0325 11.3712C26.3992 8.2844 27.744 6.7257 30.0973 6.7257C32.5118 6.7257 33.7954 8.43721 33.7954 10.7905C33.7954 11.9214 33.4898 12.8688 32.8785 13.6634C32.2367 14.4886 31.381 14.8859 30.2807 14.8859C29.0582 14.8859 28.2941 14.3969 28.1107 13.9079C27.9274 13.4189 27.6829 12.9299 27.3161 12.9299C26.8271 12.9299 26.5826 13.205 26.5826 13.7551C26.5826 13.9385 26.5826 14.3664 26.6132 15.0082C26.6132 15.65 26.6132 16.2001 26.6132 16.5975C26.6132 17.3921 26.5215 19.1342 26.3687 19.9899C26.1853 20.9374 25.7574 22.1904 25.2073 22.8322C24.6572 23.4741 23.6792 23.9936 22.5483 23.9936C20.3784 24.1159 19.2476 22.4349 18.6974 20.754C18.4835 20.2344 18.3612 19.562 18.2696 18.798C18.1167 17.2698 18.0862 16.5669 18.0862 15.2527C18.0862 14.6109 18.0862 14.0302 18.1167 13.5717C18.1473 12.6854 18.3307 10.8211 18.6974 9.84309C19.2476 8.25383 20.3784 6.60345 22.5483 6.7257Z" fill="white"/>
<path d="M5.32034 15.4969C5.32034 14.5189 5.41203 13.4187 5.62596 12.1961C5.8399 11.0042 6.02328 10.0262 6.23722 9.29269L6.57341 8.19243C5.19809 8.28412 4.00614 8.00906 2.99757 7.42836C1.989 6.84767 1.5 5.8391 1.5 4.40266C1.5 1.7437 3.3032 0.551758 7.21522 0.551758H13.5723C17.362 0.551758 19.2569 1.83539 19.2569 4.40266C19.2569 5.86967 18.7374 6.9088 17.6677 7.55061C16.598 8.19243 15.406 8.40637 14.0918 8.19243C14.7948 10.8819 15.1615 13.327 15.1615 15.4969C15.1615 16.1999 15.1615 16.8111 15.131 17.3001C15.1004 18.2476 14.917 20.1119 14.4891 21.0288C13.8473 22.5875 12.6248 24.1156 10.2409 23.9933C7.85704 24.1156 6.63453 22.5875 5.99272 21.0288C5.77878 20.5398 5.62596 19.9285 5.53428 19.1644C5.32034 17.6057 5.32034 17.0251 5.32034 15.4969Z" fill="white"/>
</svg>
