<svg width="65" height="64" viewBox="0 0 65 64" fill="none" xmlns="http://www.w3.org/2000/svg">
<rect x="4.5" y="4" width="56" height="56" rx="28" fill="#5594F0"/>
<rect x="4.5" y="4" width="56" height="56" rx="28" stroke="#2A79EC" stroke-width="8"/>
<path d="M37.5 24H27.5C24.5 24 22.5 25.5 22.5 29V32.56C22.5 32.93 22.88 33.16 23.21 33.01C24.19 32.56 25.32 32.39 26.51 32.6C29.14 33.07 31.07 35.51 31 38.18C30.99 38.6 30.93 39.01 30.82 39.41C30.74 39.72 30.99 40.01 31.31 40.01H37.5C40.5 40.01 42.5 38.51 42.5 35.01V29C42.5 25.5 40.5 24 37.5 24ZM32.5 34.5C31.12 34.5 30 33.38 30 32C30 30.62 31.12 29.5 32.5 29.5C33.88 29.5 35 30.62 35 32C35 33.38 33.88 34.5 32.5 34.5ZM39.75 34C39.75 34.41 39.41 34.75 39 34.75C38.59 34.75 38.25 34.41 38.25 34V30C38.25 29.59 38.59 29.25 39 29.25C39.41 29.25 39.75 29.59 39.75 30V34Z" fill="white"/>
<path d="M25.5 34C23.29 34 21.5 35.79 21.5 38C21.5 38.75 21.71 39.46 22.08 40.06C22.77 41.22 24.04 42 25.5 42C26.96 42 28.23 41.22 28.92 40.06C29.29 39.46 29.5 38.75 29.5 38C29.5 35.79 27.71 34 25.5 34ZM27.47 37.67L25.34 39.64C25.2 39.77 25.01 39.84 24.83 39.84C24.64 39.84 24.45 39.77 24.3 39.62L23.31 38.63C23.02 38.34 23.02 37.86 23.31 37.57C23.6 37.28 24.08 37.28 24.37 37.57L24.85 38.05L26.45 36.57C26.75 36.29 27.23 36.31 27.51 36.61C27.79 36.91 27.77 37.39 27.47 37.67Z" fill="white"/>
</svg>
