<svg width="65" height="64" viewBox="0 0 65 64" fill="none" xmlns="http://www.w3.org/2000/svg">
<rect x="4.5" y="4" width="56" height="56" rx="28" fill="#5594F0"/>
<rect x="4.5" y="4" width="56" height="56" rx="28" stroke="#2A79EC" stroke-width="8"/>
<path d="M38.3095 25.49V26.23L34.7695 24.18C33.4295 23.41 31.5595 23.41 30.2295 24.18L26.6895 26.24V25.49C26.6895 23.24 27.9195 22 30.1695 22H34.8295C37.0795 22 38.3095 23.24 38.3095 25.49Z" fill="white"/>
<path d="M38.34 27.97L38.2 27.9L36.84 27.12L34.02 25.49C33.16 24.99 31.84 24.99 30.98 25.49L28.16 27.11L26.8 27.91L26.62 28C24.87 29.18 24.75 29.4 24.75 31.29V35.81C24.75 37.7 24.87 37.92 26.66 39.13L30.98 41.62C31.41 41.88 31.95 41.99 32.5 41.99C33.04 41.99 33.59 41.87 34.02 41.62L38.38 39.1C40.14 37.92 40.25 37.71 40.25 35.81V31.29C40.25 29.4 40.13 29.18 38.34 27.97ZM35.29 33.5L34.68 34.25C34.58 34.36 34.51 34.57 34.52 34.72L34.58 35.68C34.62 36.27 34.2 36.57 33.65 36.36L32.76 36C32.62 35.95 32.39 35.95 32.25 36L31.36 36.35C30.81 36.57 30.39 36.26 30.43 35.67L30.49 34.71C30.5 34.56 30.43 34.35 30.33 34.24L29.71 33.5C29.33 33.05 29.5 32.55 30.07 32.4L31 32.16C31.15 32.12 31.32 31.98 31.4 31.86L31.92 31.06C32.24 30.56 32.75 30.56 33.08 31.06L33.6 31.86C33.68 31.99 33.86 32.12 34 32.16L34.93 32.4C35.5 32.55 35.67 33.05 35.29 33.5Z" fill="white"/>
</svg>
