<svg width="65" height="64" viewBox="0 0 65 64" fill="none" xmlns="http://www.w3.org/2000/svg">
<rect x="4.5" y="4" width="56" height="56" rx="28" fill="#5594F0"/>
<rect x="4.5" y="4" width="56" height="56" rx="28" stroke="#2A79EC" stroke-width="8"/>
<path d="M40.0007 27.5001L38.5107 28.9901L35.5107 25.9901L37.0007 24.5001C37.4207 24.0801 37.9607 23.8801 38.5007 23.8801C39.0407 23.8801 39.5807 24.0801 40.0007 24.5001C40.8307 25.3301 40.8307 26.6701 40.0007 27.5001Z" fill="white"/>
<path d="M37.8095 29.7L26.9995 40.5C26.1695 41.33 24.8295 41.33 23.9995 40.5C23.1695 39.67 23.1695 38.33 23.9995 37.5L34.8095 26.7L37.8095 29.7Z" fill="white"/>
<path d="M30.4505 23.5L30.8605 22.11C30.9005 21.98 30.8605 21.84 30.7705 21.74C30.6805 21.64 30.5205 21.6 30.3905 21.64L29.0005 22.05L27.6105 21.64C27.4805 21.6 27.3405 21.64 27.2405 21.73C27.1405 21.83 27.1105 21.97 27.1505 22.1L27.5505 23.5L27.1405 24.89C27.1005 25.02 27.1405 25.16 27.2305 25.26C27.3305 25.36 27.4705 25.39 27.6005 25.35L29.0005 24.95L30.3905 25.36C30.4305 25.37 30.4605 25.38 30.5005 25.38C30.6005 25.38 30.6905 25.34 30.7705 25.27C30.8705 25.17 30.9005 25.03 30.8605 24.9L30.4505 23.5Z" fill="white"/>
<path d="M26.4505 29.5L26.8605 28.11C26.9005 27.98 26.8605 27.84 26.7705 27.74C26.6705 27.64 26.5305 27.61 26.4005 27.65L25.0005 28.05L23.6105 27.64C23.4805 27.6 23.3405 27.64 23.2405 27.73C23.1405 27.83 23.1105 27.97 23.1505 28.1L23.5505 29.5L23.1405 30.89C23.1005 31.02 23.1405 31.16 23.2305 31.26C23.3305 31.36 23.4705 31.39 23.6005 31.35L24.9905 30.94L26.3805 31.35C26.4105 31.36 26.4505 31.36 26.4905 31.36C26.5905 31.36 26.6805 31.32 26.7605 31.25C26.8605 31.15 26.8905 31.01 26.8505 30.88L26.4505 29.5Z" fill="white"/>
<path d="M41.4497 34.5L41.8597 33.11C41.8997 32.98 41.8597 32.84 41.7697 32.74C41.6697 32.64 41.5297 32.61 41.3997 32.65L40.0097 33.06L38.6197 32.65C38.4897 32.61 38.3497 32.65 38.2497 32.74C38.1497 32.84 38.1197 32.98 38.1597 33.11L38.5697 34.5L38.1597 35.89C38.1197 36.02 38.1597 36.16 38.2497 36.26C38.3497 36.36 38.4897 36.39 38.6197 36.35L40.0097 35.94L41.3997 36.35C41.4297 36.36 41.4697 36.36 41.5097 36.36C41.6097 36.36 41.6997 36.32 41.7797 36.25C41.8797 36.15 41.9097 36.01 41.8697 35.88L41.4497 34.5Z" fill="white"/>
</svg>
