<svg width="36" height="36" viewBox="0 0 36 36" fill="none" xmlns="http://www.w3.org/2000/svg">
<rect width="36" height="36" rx="18" fill="#005EE8"/>
<path d="M17.9497 9.84185L15.9413 14.5169H13.933C13.5997 14.5169 13.2747 14.5419 12.958 14.6085L13.7913 12.6085L13.8247 12.5335L13.8747 12.4002C13.8997 12.3419 13.9163 12.2919 13.9413 12.2502C14.908 10.0085 15.9913 9.30852 17.9497 9.84185Z" fill="white"/>
<path d="M23.6079 14.7413L23.5913 14.7329C23.0913 14.5913 22.5829 14.5163 22.0663 14.5163H16.8496L18.7246 10.1579L18.7496 10.0996C18.8663 10.1413 18.9913 10.1996 19.1163 10.2413L20.9579 11.0163C21.9829 11.4413 22.6996 11.8829 23.1413 12.4163C23.2163 12.5163 23.2829 12.6079 23.3496 12.7163C23.4246 12.8329 23.4829 12.9496 23.5163 13.0746C23.5496 13.1496 23.5746 13.2163 23.5913 13.2913C23.7163 13.7163 23.7246 14.1996 23.6079 14.7413Z" fill="white"/>
<path d="M23.2412 15.9333C22.8662 15.8249 22.4745 15.7666 22.0662 15.7666H13.9329C13.3662 15.7666 12.8329 15.8749 12.3329 16.0916C10.8829 16.7166 9.86621 18.1583 9.86621 19.8333V21.4583C9.86621 21.6583 9.88288 21.8499 9.90788 22.0499C10.0912 24.6999 11.5079 26.1166 14.1579 26.2916C14.3495 26.3166 14.5412 26.3333 14.7495 26.3333H21.2495C24.3329 26.3333 25.9579 24.8666 26.1162 21.9499C26.1245 21.7916 26.1329 21.6249 26.1329 21.4583V19.8333C26.1329 17.9916 24.9079 16.4416 23.2412 15.9333ZM20.0829 21.4916H18.6245V22.9999C18.6245 23.3416 18.3412 23.6249 17.9995 23.6249C17.6579 23.6249 17.3745 23.3416 17.3745 22.9999V21.4916H15.9162C15.5745 21.4916 15.2912 21.2166 15.2912 20.8666C15.2912 20.5249 15.5745 20.2416 15.9162 20.2416H17.3745V18.8333C17.3745 18.4916 17.6579 18.2083 17.9995 18.2083C18.3412 18.2083 18.6245 18.4916 18.6245 18.8333V20.2416H20.0829C20.4245 20.2416 20.7079 20.5249 20.7079 20.8666C20.7079 21.2166 20.4245 21.4916 20.0829 21.4916Z" fill="white"/>
</svg>
