<svg width="36" height="36" viewBox="0 0 36 36" fill="none" xmlns="http://www.w3.org/2000/svg">
<rect width="36" height="36" rx="18" fill="#F04438"/>
<path d="M23.5585 9.66669H21.9752C20.1585 9.66669 19.2002 10.625 19.2002 12.4417V14.025C19.2002 15.8417 20.1585 16.8 21.9752 16.8H23.5585C25.3752 16.8 26.3335 15.8417 26.3335 14.025V12.4417C26.3335 10.625 25.3752 9.66669 23.5585 9.66669Z" fill="white"/>
<path d="M14.0332 19.1917H12.4498C10.6248 19.1917 9.6665 20.15 9.6665 21.9667V23.55C9.6665 25.375 10.6248 26.3333 12.4415 26.3333H14.0248C15.8415 26.3333 16.7998 25.375 16.7998 23.5583V21.975C16.8082 20.15 15.8498 19.1917 14.0332 19.1917Z" fill="white"/>
<path d="M13.2415 16.8167C15.2159 16.8167 16.8165 15.2161 16.8165 13.2417C16.8165 11.2673 15.2159 9.66669 13.2415 9.66669C11.2671 9.66669 9.6665 11.2673 9.6665 13.2417C9.6665 15.2161 11.2671 16.8167 13.2415 16.8167Z" fill="white"/>
<path d="M22.7581 26.3334C24.7325 26.3334 26.3331 24.7328 26.3331 22.7583C26.3331 20.7839 24.7325 19.1833 22.7581 19.1833C20.7837 19.1833 19.1831 20.7839 19.1831 22.7583C19.1831 24.7328 20.7837 26.3334 22.7581 26.3334Z" fill="white"/>
</svg>
