<svg width="36" height="36" viewBox="0 0 36 36" fill="none" xmlns="http://www.w3.org/2000/svg">
<rect width="36" height="36" rx="18" fill="#F79009"/>
<path d="M12.1668 20.5C10.3252 20.5 8.8335 21.9917 8.8335 23.8333C8.8335 24.4583 9.0085 25.05 9.31683 25.55C9.89183 26.5167 10.9502 27.1667 12.1668 27.1667C13.3835 27.1667 14.4418 26.5167 15.0168 25.55C15.3252 25.05 15.5002 24.4583 15.5002 23.8333C15.5002 21.9917 14.0085 20.5 12.1668 20.5ZM13.4085 24.4417H12.7918V25.0917C12.7918 25.4333 12.5085 25.7167 12.1668 25.7167C11.8252 25.7167 11.5418 25.4333 11.5418 25.0917V24.4417H10.9252C10.5835 24.4417 10.3002 24.1583 10.3002 23.8167C10.3002 23.475 10.5835 23.1917 10.9252 23.1917H11.5418V22.6C11.5418 22.2583 11.8252 21.975 12.1668 21.975C12.5085 21.975 12.7918 22.2583 12.7918 22.6V23.1917H13.4085C13.7502 23.1917 14.0335 23.475 14.0335 23.8167C14.0335 24.1583 13.7585 24.4417 13.4085 24.4417Z" fill="white"/>
<path d="M25.9165 18.4167H23.8332C22.9165 18.4167 22.1665 19.1667 22.1665 20.0833C22.1665 21 22.9165 21.75 23.8332 21.75H25.9165C26.1498 21.75 26.3332 21.5667 26.3332 21.3333V18.8333C26.3332 18.6 26.1498 18.4167 25.9165 18.4167Z" fill="white"/>
<path d="M21.775 12.5C22.025 12.7417 21.8167 13.1167 21.4667 13.1167L14.5667 13.1083C14.1667 13.1083 13.9667 12.625 14.25 12.3417L15.7083 10.875C16.9417 9.65 18.9333 9.65 20.1667 10.875L21.7417 12.4667C21.75 12.475 21.7667 12.4917 21.775 12.5Z" fill="white"/>
<path d="M26.225 23.55C25.7166 25.2667 24.25 26.3333 22.25 26.3333H16.8333C16.5083 26.3333 16.3 25.975 16.4333 25.675C16.6833 25.0917 16.8416 24.4333 16.8416 23.8333C16.8416 21.3083 14.7833 19.25 12.2583 19.25C11.625 19.25 11.0083 19.3833 10.4416 19.6333C10.1333 19.7667 9.7583 19.5583 9.7583 19.225V18C9.7583 15.7333 11.125 14.15 13.25 13.8833C13.4583 13.85 13.6833 13.8333 13.9166 13.8333H22.25C22.4666 13.8333 22.675 13.8417 22.875 13.875C24.5583 14.0667 25.775 15.0917 26.225 16.6167C26.3083 16.8917 26.1083 17.1667 25.825 17.1667H23.9166C22.1083 17.1667 20.675 18.8167 21.0666 20.6917C21.3416 22.0583 22.6083 23 24 23H25.825C26.1166 23 26.3083 23.2833 26.225 23.55Z" fill="white"/>
</svg>
