<svg width="112" height="20" viewBox="0 0 112 20" fill="none" xmlns="http://www.w3.org/2000/svg">
<path d="M104.542 10.5884V8.88138C104.542 5.78429 104.786 3.56512 105.274 2.24825C105.761 0.931384 106.688 0.272949 108.078 0.272949C109.468 0.272949 110.395 0.931384 110.882 2.24825C111.37 3.56512 111.614 5.78429 111.614 8.88138V10.5884C111.614 13.7343 111.37 15.9778 110.882 17.3435C110.395 18.7335 109.468 19.4163 108.078 19.4163C106.688 19.4163 105.761 18.7335 105.274 17.3435C104.786 15.9778 104.542 13.7343 104.542 10.5884Z" fill="#005EE8"/>
<path d="M91.363 0.272561C92.6311 0.248173 93.5091 0.638358 93.9724 1.41873C94.4357 2.22348 94.704 3.6379 94.7772 5.68636C94.8015 6.68621 94.7284 7.46657 94.5821 8.05185C95.2893 6.46673 96.4354 5.66197 97.9962 5.66197C99.8008 5.68636 101.166 6.36918 102.069 7.71044C102.971 9.05169 103.434 10.6124 103.434 12.3926C103.434 15.9287 101.971 19.416 97.8742 19.416C96.9963 19.416 96.1916 19.1965 95.46 18.7575C94.7284 18.3186 94.265 17.6357 94.07 16.7334C94.0456 17.2456 93.9724 17.7089 93.631 18.3429C93.2896 18.977 92.5092 19.416 91.363 19.416C89.8511 19.416 88.8756 18.7819 88.4123 17.5138C87.9489 16.2457 87.7051 13.8314 87.7051 10.2466V7.9543C87.7051 5.10108 87.9733 3.10139 88.5342 1.97961C89.0951 0.857836 90.0218 0.296947 91.363 0.272561ZM94.6065 11.5147C94.1431 11.9293 94.1431 12.6365 94.6065 13.0998C95.0698 13.5632 95.7526 13.5632 96.216 13.0998C96.6793 12.6365 96.6793 11.9293 96.216 11.4903C95.7526 11.0514 95.0698 11.0514 94.6065 11.5147Z" fill="#005EE8"/>
<path d="M71.8418 12.4659C71.8418 10.515 72.2808 8.8811 73.1831 7.58861C74.061 6.29613 75.3778 5.6377 77.1337 5.6377C78.8163 5.6377 80.2064 6.41806 80.5965 7.85687C80.9136 6.36929 81.7915 5.6377 83.2547 5.6377C84.0107 5.6377 84.6447 5.85717 85.0837 6.12543C85.5226 6.41806 85.864 7.00334 86.0835 7.41791C86.303 7.83248 86.4737 8.71039 86.5468 9.17374C86.5712 9.4176 86.62 9.73463 86.6444 10.1492C86.6932 11.0515 86.6688 11.149 86.6688 12.0026C86.6688 12.1001 86.6688 12.1733 86.6688 12.222C86.6688 14.4656 86.5225 16.0507 86.2298 17.0018C85.7177 18.6113 84.7179 19.4161 83.2547 19.4161C81.889 19.4161 81.1087 18.8552 80.7429 17.3676C80.1332 18.7332 78.9383 19.4161 77.1337 19.4161C75.3291 19.4161 73.9878 18.782 73.1343 17.4895C72.2808 16.197 71.8418 14.5388 71.8418 12.4659ZM78.4749 11.3441C78.0116 11.8075 78.0116 12.4903 78.4749 12.9293C78.9383 13.3682 79.6211 13.3682 80.0844 12.9293C80.5478 12.4903 80.5478 11.8075 80.0844 11.3441C79.6211 10.8808 78.9383 10.8808 78.4749 11.3441Z" fill="#005EE8"/>
<path d="M56.2461 10.5884V8.88138C56.2461 5.78429 56.49 3.56512 56.9777 2.24825C57.4654 0.931384 58.3921 0.272949 59.7821 0.272949C60.9771 0.272949 61.8794 0.785065 62.3427 1.4435C62.5622 1.76052 62.7573 2.19948 62.9036 2.7116C63.1719 3.7846 63.1962 4.46742 63.2206 5.66236L63.1475 10.5397C63.1719 10.7347 63.1962 10.7591 63.2206 10.6128C63.3913 9.39349 63.5864 8.53997 63.7815 8.02785C64.4156 6.3208 65.4886 5.46727 67.0249 5.46727C67.7809 5.46727 68.4637 5.71113 69.0246 6.19886C69.5855 6.68659 69.8781 7.29626 69.8781 8.02785C69.8781 9.0277 69.5123 9.80806 68.7807 10.3933C68.0491 10.9786 67.1712 11.3688 66.147 11.5395C67.3907 12.0516 68.1223 12.4174 69.1465 13.1734C70.1708 13.9294 70.7317 14.9536 70.7317 16.1485C70.7317 17.0996 70.3659 17.88 69.6343 18.4897C68.9027 19.0993 68.0979 19.4163 67.22 19.4163C65.0252 19.4163 63.6352 17.2947 63.0743 13.0515C63.0743 13.5148 63.0743 13.7831 63.0743 13.905C63.0743 14.0269 63.0743 14.3196 63.0499 14.7829C63.0255 15.2462 63.0012 15.5877 62.9768 15.7584C62.9524 15.9535 62.9036 16.2461 62.8304 16.6607C62.6841 17.4654 62.489 17.6849 62.1476 18.2702C61.6355 19.0749 60.9283 19.3188 59.7821 19.4163C58.3921 19.4163 57.4654 18.7335 56.9777 17.3435C56.49 15.9778 56.2461 13.7343 56.2461 10.5884Z" fill="#005EE8"/>
<path d="M42.8594 12.4415C42.8594 10.3199 43.5178 8.66162 44.8347 7.4423C46.1516 6.24736 47.9318 5.6377 50.1509 5.6377C51.3946 5.6377 52.4676 5.90595 53.3456 6.44245C54.2235 6.97895 54.6624 7.83248 54.6624 9.00303C54.6624 9.68585 54.4673 10.2955 54.0772 10.8564C53.687 11.4173 53.1749 11.7099 52.5164 11.7099C52.0287 11.7099 51.3703 11.3441 51.0045 11.3441C50.3704 11.3441 50.0534 11.6612 50.0534 12.2708C50.0534 12.9536 50.5167 13.2707 51.0045 13.2707C51.2971 13.2707 51.9799 12.8317 52.7359 12.8317C54.3942 12.8317 55.2965 14.0266 55.2965 15.6605C55.2965 17.0506 54.6137 18.0992 53.565 18.6357C52.492 19.1722 51.3946 19.4161 50.1509 19.4161C45.298 19.4161 42.8594 17.0993 42.8594 12.4415Z" fill="#005EE8"/>
<path d="M26.5225 12.4659C26.5225 10.515 26.9614 8.8811 27.8637 7.58861C28.7416 6.29613 30.0585 5.6377 31.8143 5.6377C33.497 5.6377 34.887 6.41806 35.2772 7.85687C35.5942 6.36929 36.4721 5.6377 37.9353 5.6377C38.6913 5.6377 39.3254 5.85717 39.7643 6.12543C40.2033 6.41806 40.5447 7.00334 40.7642 7.41791C40.9836 7.83248 41.1543 8.71039 41.2275 9.17374C41.2519 9.4176 41.3007 9.73463 41.3251 10.1492C41.3738 11.0515 41.3494 11.149 41.3494 12.0026C41.3494 12.1001 41.3494 12.1733 41.3494 12.222C41.3494 14.4656 41.2031 16.0507 40.9105 17.0018C40.3984 18.6113 39.3985 19.4161 37.9353 19.4161C36.5697 19.4161 35.7893 18.8552 35.4235 17.3676C34.8139 18.7332 33.6189 19.4161 31.8143 19.4161C30.0097 19.4161 28.6685 18.782 27.8149 17.4895C26.9614 16.197 26.5225 14.5388 26.5225 12.4659ZM33.1556 11.3441C32.6922 11.8075 32.6922 12.4903 33.1556 12.9293C33.6189 13.3682 34.3017 13.3682 34.7651 12.9293C35.2284 12.4903 35.2284 11.8075 34.7651 11.3441C34.3017 10.8808 33.6189 10.8808 33.1556 11.3441Z" fill="#005EE8"/>
<path d="M16.8202 5.63792C18.8443 5.63792 19.5027 6.83286 19.6003 9.34467C19.8929 6.88163 20.9659 5.63792 22.8437 5.63792C24.7702 5.63792 25.7944 7.00356 25.7944 8.88132C25.7944 9.78362 25.5506 10.5396 25.0628 11.1737C24.5507 11.8321 23.8679 12.1491 22.99 12.1491C22.0145 12.1491 21.4049 11.7589 21.2585 11.3687C21.1122 10.9786 20.9171 10.5884 20.6245 10.5884C20.2343 10.5884 20.0392 10.8079 20.0392 11.2468C20.0392 11.3931 20.0392 11.7345 20.0636 12.2467C20.0636 12.7588 20.0636 13.1977 20.0636 13.5148C20.0636 14.1488 19.9904 15.5388 19.8685 16.2217C19.7222 16.9776 19.3808 17.9775 18.9418 18.4896C18.5029 19.0017 17.7225 19.4163 16.8202 19.4163C15.0888 19.5138 14.1865 18.1726 13.7475 16.8313C13.5768 16.4167 13.4792 15.8802 13.4061 15.2706C13.2842 14.0513 13.2598 13.4904 13.2598 12.4417C13.2598 11.9296 13.2598 11.4663 13.2842 11.1005C13.3085 10.3933 13.4549 8.90571 13.7475 8.12534C14.1865 6.85724 15.0888 5.54037 16.8202 5.63792Z" fill="#005EE8"/>
<path d="M3.0737 12.6364C3.0737 11.856 3.14686 10.9781 3.31757 10.0027C3.48827 9.0516 3.63459 8.27124 3.8053 7.68596L4.07355 6.80805C2.97615 6.88121 2.02508 6.66173 1.22033 6.19838C0.415574 5.73504 0.0253906 4.93029 0.0253906 3.78412C0.0253906 1.6625 1.46419 0.711426 4.58566 0.711426H9.65805C12.682 0.711426 14.1939 1.73566 14.1939 3.78412C14.1939 4.95467 13.7794 5.78381 12.9258 6.29593C12.0723 6.80805 11.1212 6.97875 10.0726 6.80805C10.6335 8.95406 10.9261 10.905 10.9261 12.6364C10.9261 13.1973 10.9261 13.685 10.9018 14.0752C10.8774 14.8312 10.7311 16.3188 10.3896 17.0504C9.87753 18.2941 8.90207 19.5134 6.99992 19.4159C5.09778 19.5134 4.12232 18.2941 3.6102 17.0504C3.4395 16.6602 3.31757 16.1725 3.24441 15.5628C3.0737 14.3191 3.0737 13.8557 3.0737 12.6364Z" fill="#005EE8"/>
</svg>
