<svg width="20" height="20" viewBox="0 0 20 20" fill="none" xmlns="http://www.w3.org/2000/svg">
<path d="M8.66602 1.33333C8.66602 0.596954 9.26297 0 9.99935 0C10.7357 0 11.3327 0.596954 11.3327 1.33333V5.33333C11.3327 6.06971 10.7357 6.66667 9.99935 6.66667C9.26297 6.66667 8.66602 6.06971 8.66602 5.33333V1.33333Z" fill="white"/>
<path opacity="0.87" d="M2.92959 4.81447C2.40889 4.29377 2.40889 3.44955 2.92959 2.92885C3.45029 2.40816 4.29451 2.40816 4.81521 2.92885L7.64363 5.75728C8.16433 6.27798 8.16433 7.1222 7.64363 7.6429C7.12293 8.1636 6.27871 8.1636 5.75801 7.6429L2.92959 4.81447Z" fill="white"/>
<path opacity="0.75" d="M1.33333 11.3334C0.596954 11.3334 0 10.7365 0 10.0001C0 9.2637 0.596954 8.66675 1.33333 8.66675H5.33333C6.06971 8.66675 6.66667 9.2637 6.66667 10.0001C6.66667 10.7365 6.06971 11.3334 5.33333 11.3334H1.33333Z" fill="white"/>
<path opacity="0.63" d="M4.81521 17.0711C4.29451 17.5918 3.45029 17.5918 2.92959 17.0711C2.40889 16.5504 2.40889 15.7062 2.92959 15.1855L5.75801 12.3571C6.27871 11.8364 7.12293 11.8364 7.64363 12.3571C8.16433 12.8778 8.16433 13.722 7.64363 14.2427L4.81521 17.0711Z" fill="white"/>
<path opacity="0.51" d="M11.3327 18.6666C11.3327 19.403 10.7357 19.9999 9.99935 19.9999C9.26297 19.9999 8.66602 19.403 8.66602 18.6666V14.6666C8.66602 13.9302 9.26297 13.3333 9.99935 13.3333C10.7357 13.3333 11.3327 13.9302 11.3327 14.6666V18.6666Z" fill="white"/>
<path opacity="0.39" d="M17.0714 15.1855C17.5921 15.7062 17.5921 16.5504 17.0714 17.0711C16.5507 17.5918 15.7064 17.5918 15.1857 17.0711L12.3573 14.2427C11.8366 13.722 11.8366 12.8778 12.3573 12.3571C12.878 11.8364 13.7222 11.8364 14.2429 12.3571L17.0714 15.1855Z" fill="white"/>
<path opacity="0.27" d="M18.6673 8.66675C19.4037 8.66675 20.0007 9.2637 20.0007 10.0001C20.0007 10.7365 19.4037 11.3334 18.6673 11.3334H14.6673C13.9309 11.3334 13.334 10.7365 13.334 10.0001C13.334 9.2637 13.9309 8.66675 14.6673 8.66675H18.6673Z" fill="white"/>
<path opacity="0.15" d="M15.1857 2.92885C15.7064 2.40816 16.5507 2.40816 17.0714 2.92885C17.5921 3.44955 17.5921 4.29377 17.0714 4.81447L14.2429 7.6429C13.7222 8.1636 12.878 8.1636 12.3573 7.6429C11.8366 7.1222 11.8366 6.27798 12.3573 5.75728L15.1857 2.92885Z" fill="white"/>
</svg>
