<svg width="65" height="64" viewBox="0 0 65 64" fill="none" xmlns="http://www.w3.org/2000/svg">
<rect x="4.5" y="4" width="56" height="56" rx="28" fill="#2A79EC"/>
<rect x="4.5" y="4" width="56" height="56" rx="28" stroke="#005EE8" stroke-width="8"/>
<path d="M38.9704 36.83L39.3604 39.99C39.4604 40.82 38.5704 41.4 37.8604 40.97L34.4004 38.91C34.1604 38.77 34.1004 38.47 34.2304 38.23C34.7304 37.31 35.0004 36.27 35.0004 35.23C35.0004 31.57 31.8604 28.59 28.0004 28.59C27.2104 28.59 26.4404 28.71 25.7204 28.95C25.3504 29.07 24.9904 28.73 25.0804 28.35C25.9904 24.71 29.4904 22 33.6704 22C38.5504 22 42.5004 25.69 42.5004 30.24C42.5004 32.94 41.1104 35.33 38.9704 36.83Z" fill="white"/>
<path d="M33.5 35.2298C33.5 36.4198 33.06 37.5198 32.32 38.3898C31.33 39.5898 29.76 40.3598 28 40.3598L25.39 41.9098C24.95 42.1798 24.39 41.8098 24.45 41.2998L24.7 39.3298C23.36 38.3998 22.5 36.9098 22.5 35.2298C22.5 33.4698 23.44 31.9198 24.88 30.9998C25.77 30.4198 26.84 30.0898 28 30.0898C31.04 30.0898 33.5 32.3898 33.5 35.2298Z" fill="white"/>
</svg>
