<svg width="36" height="36" viewBox="0 0 36 36" fill="none" xmlns="http://www.w3.org/2000/svg">
<rect width="36" height="36" rx="18" fill="#005EE8"/>
<path d="M23.5585 9.66699H21.9752C20.1585 9.66699 19.2002 10.6253 19.2002 12.442V14.0253C19.2002 15.842 20.1585 16.8003 21.9752 16.8003H23.5585C25.3752 16.8003 26.3335 15.842 26.3335 14.0253V12.442C26.3335 10.6253 25.3752 9.66699 23.5585 9.66699Z" fill="white"/>
<path d="M14.0337 19.1914H12.4503C10.6253 19.1914 9.66699 20.1497 9.66699 21.9664V23.5497C9.66699 25.3747 10.6253 26.3331 12.442 26.3331H14.0253C15.842 26.3331 16.8003 25.3747 16.8003 23.5581V21.9747C16.8087 20.1497 15.8503 19.1914 14.0337 19.1914Z" fill="white"/>
<path d="M13.242 16.817C15.2164 16.817 16.817 15.2164 16.817 13.242C16.817 11.2676 15.2164 9.66699 13.242 9.66699C11.2676 9.66699 9.66699 11.2676 9.66699 13.242C9.66699 15.2164 11.2676 16.817 13.242 16.817Z" fill="white"/>
<path d="M22.7586 26.3336C24.733 26.3336 26.3336 24.733 26.3336 22.7586C26.3336 20.7842 24.733 19.1836 22.7586 19.1836C20.7842 19.1836 19.1836 20.7842 19.1836 22.7586C19.1836 24.733 20.7842 26.3336 22.7586 26.3336Z" fill="white"/>
</svg>
