<svg width="29" height="28" viewBox="0 0 29 28" fill="none" xmlns="http://www.w3.org/2000/svg">
<rect x="0.5" width="28" height="28" rx="14" fill="#F04438"/>
<path d="M10.6111 9.54105C10.3454 9.54105 10.125 9.32068 10.125 9.05494V7.92068C10.125 7.65494 10.3454 7.43457 10.6111 7.43457C10.8769 7.43457 11.0972 7.65494 11.0972 7.92068V9.05494C11.0972 9.32716 10.8769 9.54105 10.6111 9.54105Z" fill="white"/>
<path d="M13.2039 9.54105C12.9381 9.54105 12.7178 9.32068 12.7178 9.05494V7.92068C12.7178 7.65494 12.9381 7.43457 13.2039 7.43457C13.4696 7.43457 13.69 7.65494 13.69 7.92068V9.05494C13.69 9.32716 13.4696 9.54105 13.2039 9.54105Z" fill="white"/>
<path d="M15.7967 9.54105C15.5309 9.54105 15.3105 9.32068 15.3105 9.05494V7.92068C15.3105 7.65494 15.5309 7.43457 15.7967 7.43457C16.0624 7.43457 16.2828 7.65494 16.2828 7.92068V9.05494C16.2828 9.32716 16.0624 9.54105 15.7967 9.54105Z" fill="white"/>
<path d="M21.1437 14.8108C21.1437 13.1127 19.828 11.7386 18.1687 11.596C17.6891 10.8118 16.8335 10.2803 15.8483 10.2803H11.0715C9.56777 10.2803 8.34277 11.5053 8.34277 13.009V13.3525H18.577V13.009C18.577 12.8858 18.5576 12.7627 18.5381 12.646C19.478 12.9247 20.1715 13.7803 20.1715 14.8108C20.1715 15.8284 19.4974 16.6775 18.577 16.9627V14.0006H8.34277V17.7534C8.34277 19.2571 9.56777 20.4821 11.0715 20.4821H15.8483C17.2743 20.4821 18.4344 19.3803 18.5511 17.9803C20.0289 17.6821 21.1437 16.3729 21.1437 14.8108Z" fill="white"/>
</svg>
