<svg width="20" height="20" viewBox="0 0 20 20" fill="none" xmlns="http://www.w3.org/2000/svg">
<path d="M18.3337 17.7083H17.5003V8.3166C17.5003 7.79993 17.267 7.3166 16.8587 6.99993L15.8337 6.19993L15.817 4.15827C15.817 3.69993 15.442 3.33327 14.9837 3.33327H12.142L11.0253 2.4666C10.4253 1.9916 9.57533 1.9916 8.97533 2.4666L3.14199 6.99993C2.73366 7.3166 2.50033 7.79994 2.50033 8.30827L2.45866 17.7083H1.66699C1.32533 17.7083 1.04199 17.9916 1.04199 18.3333C1.04199 18.6749 1.32533 18.9583 1.66699 18.9583H18.3337C18.6753 18.9583 18.9587 18.6749 18.9587 18.3333C18.9587 17.9916 18.6753 17.7083 18.3337 17.7083ZM5.41699 10.6249V9.37494C5.41699 8.9166 5.79199 8.5416 6.25033 8.5416H7.91699C8.37533 8.5416 8.75033 8.9166 8.75033 9.37494V10.6249C8.75033 11.0833 8.37533 11.4583 7.91699 11.4583H6.25033C5.79199 11.4583 5.41699 11.0833 5.41699 10.6249ZM12.0837 17.7083H7.91699V15.4166C7.91699 14.7249 8.47533 14.1666 9.16699 14.1666H10.8337C11.5253 14.1666 12.0837 14.7249 12.0837 15.4166V17.7083ZM14.5837 10.6249C14.5837 11.0833 14.2087 11.4583 13.7503 11.4583H12.0837C11.6253 11.4583 11.2503 11.0833 11.2503 10.6249V9.37494C11.2503 8.9166 11.6253 8.5416 12.0837 8.5416H13.7503C14.2087 8.5416 14.5837 8.9166 14.5837 9.37494V10.6249Z" fill="white"/>
</svg>
