<svg width="16" height="16" viewBox="0 0 16 16" fill="none" xmlns="http://www.w3.org/2000/svg">
<path d="M10.793 1.33301H5.20634C2.77967 1.33301 1.33301 2.77967 1.33301 5.20634V10.7863C1.33301 13.2197 2.77967 14.6663 5.20634 14.6663H10.7863C13.213 14.6663 14.6597 13.2197 14.6597 10.793V5.20634C14.6663 2.77967 13.2197 1.33301 10.793 1.33301ZM11.253 7.68634C11.253 7.94634 11.0463 8.15301 10.7863 8.15301C10.5263 8.15301 10.3197 7.94634 10.3197 7.68634V7.56634L8.50634 9.37967C8.40634 9.47967 8.27301 9.52634 8.13301 9.51301C7.99301 9.49968 7.86634 9.42634 7.79301 9.30634L7.11301 8.29301L5.52634 9.87967C5.43301 9.97301 5.31967 10.013 5.19967 10.013C5.07967 10.013 4.95967 9.96634 4.87301 9.87967C4.69301 9.69967 4.69301 9.40634 4.87301 9.21967L6.85967 7.23301C6.95967 7.13301 7.09301 7.08634 7.23301 7.09967C7.37301 7.11301 7.49967 7.18634 7.57301 7.30634L8.25301 8.31967L9.65967 6.91301H9.53968C9.27968 6.91301 9.07301 6.70634 9.07301 6.44634C9.07301 6.18634 9.27968 5.97967 9.53968 5.97967H10.7797C10.8397 5.97967 10.8997 5.99301 10.9597 6.01301C11.073 6.05967 11.1663 6.15301 11.213 6.26634C11.2397 6.32634 11.2463 6.38634 11.2463 6.44634V7.68634H11.253Z" fill="#D0D5DD"/>
</svg>
