<svg width="20" height="20" viewBox="0 0 20 20" fill="none" xmlns="http://www.w3.org/2000/svg">
<path d="M13.492 1.66699H6.50866C3.47533 1.66699 1.66699 3.47533 1.66699 6.50866V13.4837C1.66699 16.5253 3.47533 18.3337 6.50866 18.3337H13.4837C16.517 18.3337 18.3253 16.5253 18.3253 13.492V6.50866C18.3337 3.47533 16.5253 1.66699 13.492 1.66699ZM7.08366 5.31699C7.94199 5.31699 8.65033 6.01699 8.65033 6.88366C8.65033 7.75033 7.95033 8.45033 7.08366 8.45033C6.21699 8.45033 5.51699 7.73366 5.51699 6.87533C5.51699 6.01699 6.22533 5.31699 7.08366 5.31699ZM10.0003 15.9003C7.75866 15.9003 5.93366 14.0753 5.93366 11.8337C5.93366 11.2503 6.40866 10.767 6.99199 10.767H12.992C13.5753 10.767 14.0503 11.242 14.0503 11.8337C14.067 14.0753 12.242 15.9003 10.0003 15.9003ZM12.917 8.43366C12.0587 8.43366 11.3503 7.73366 11.3503 6.86699C11.3503 6.00033 12.0503 5.30033 12.917 5.30033C13.7837 5.30033 14.4837 6.00033 14.4837 6.86699C14.4837 7.73366 13.7753 8.43366 12.917 8.43366Z" fill="white"/>
</svg>
