<svg width="20" height="20" viewBox="0 0 20 20" fill="none" xmlns="http://www.w3.org/2000/svg">
<path d="M5 4.26693C4.65833 4.26693 4.375 3.98359 4.375 3.64193V2.18359C4.375 1.84193 4.65833 1.55859 5 1.55859C5.34167 1.55859 5.625 1.84193 5.625 2.18359V3.64193C5.625 3.99193 5.34167 4.26693 5 4.26693Z" fill="white"/>
<path d="M8.33301 4.26693C7.99134 4.26693 7.70801 3.98359 7.70801 3.64193V2.18359C7.70801 1.84193 7.99134 1.55859 8.33301 1.55859C8.67467 1.55859 8.95801 1.84193 8.95801 2.18359V3.64193C8.95801 3.99193 8.67467 4.26693 8.33301 4.26693Z" fill="white"/>
<path d="M11.667 4.26693C11.3253 4.26693 11.042 3.98359 11.042 3.64193V2.18359C11.042 1.84193 11.3253 1.55859 11.667 1.55859C12.0087 1.55859 12.292 1.84193 12.292 2.18359V3.64193C12.292 3.99193 12.0087 4.26693 11.667 4.26693Z" fill="white"/>
<path d="M18.5413 11.0418C18.5413 8.85846 16.8497 7.0918 14.7163 6.90846C14.0997 5.90013 12.9997 5.2168 11.733 5.2168H5.59134C3.65801 5.2168 2.08301 6.7918 2.08301 8.72513V9.1668H15.2413V8.72513C15.2413 8.5668 15.2163 8.40846 15.1913 8.25846C16.3997 8.6168 17.2913 9.7168 17.2913 11.0418C17.2913 12.3501 16.4247 13.4418 15.2413 13.8085V10.0001H2.08301V14.8251C2.08301 16.7585 3.65801 18.3335 5.59134 18.3335H11.733C13.5663 18.3335 15.058 16.9168 15.208 15.1168C17.108 14.7335 18.5413 13.0501 18.5413 11.0418Z" fill="white"/>
</svg>
