<svg width="20" height="20" viewBox="0 0 20 20" fill="none" xmlns="http://www.w3.org/2000/svg">
<path d="M18.3337 6.50866V10.417H14.9337C14.8337 10.4087 14.617 10.2837 14.567 10.192L13.7003 8.55033C13.3587 7.90033 12.767 7.53366 12.1337 7.56699C11.5003 7.60033 10.9587 8.02533 10.6837 8.71699L9.53366 11.6003L9.36699 11.167C8.95866 10.1087 7.79199 9.30866 6.64199 9.30866L1.66699 9.33366V6.50866C1.66699 3.47533 3.47533 1.66699 6.50866 1.66699H13.492C16.5253 1.66699 18.3337 3.47533 18.3337 6.50866Z" fill="white"/>
<path d="M18.3337 13.4919V11.6669H14.9337C14.3753 11.6669 13.717 11.2669 13.4587 10.7752L12.592 9.13354C12.3587 8.69187 12.0253 8.71687 11.842 9.1752L9.92533 14.0169C9.71699 14.5585 9.36699 14.5585 9.15033 14.0169L8.20033 11.6169C7.97533 11.0335 7.27533 10.5585 6.65033 10.5585L1.66699 10.5835V13.4919C1.66699 16.4752 3.41699 18.2752 6.35866 18.3252C6.45033 18.3335 6.55033 18.3335 6.64199 18.3335H13.3087C13.4337 18.3335 13.5587 18.3335 13.6753 18.3252C16.6003 18.2585 18.3337 16.4669 18.3337 13.4919Z" fill="white"/>
<path d="M1.6666 10.583V13.3413C1.64993 13.0747 1.6416 12.7913 1.6416 12.4997V10.583H1.6666Z" fill="#111112"/>
</svg>
