<svg width="20" height="20" viewBox="0 0 20 20" fill="none" xmlns="http://www.w3.org/2000/svg">
<path d="M16.0337 4.65046H15.7003L12.8837 1.83379C12.6587 1.60879 12.292 1.60879 12.0587 1.83379C11.8337 2.05879 11.8337 2.42546 12.0587 2.65879L14.0503 4.65046H5.95033L7.94199 2.65879C8.16699 2.43379 8.16699 2.06712 7.94199 1.83379C7.71699 1.60879 7.35033 1.60879 7.11699 1.83379L4.30866 4.65046H3.97533C3.22533 4.65046 1.66699 4.65046 1.66699 6.78379C1.66699 7.59212 1.83366 8.12546 2.18366 8.47546C2.38366 8.68379 2.62533 8.79212 2.88366 8.85046C3.12533 8.90879 3.38366 8.91712 3.63366 8.91712H16.367C16.6253 8.91712 16.867 8.90046 17.1003 8.85046C17.8003 8.68379 18.3337 8.18379 18.3337 6.78379C18.3337 4.65046 16.7753 4.65046 16.0337 4.65046Z" fill="white"/>
<path d="M15.8746 10H4.05789C3.54123 10 3.14956 10.4583 3.23289 10.9667L3.93289 15.25C4.16623 16.6833 4.79123 18.3333 7.56623 18.3333H12.2412C15.0496 18.3333 15.5496 16.925 15.8496 15.35L16.6912 10.9917C16.7912 10.475 16.3996 10 15.8746 10ZM9.99956 16.25C8.04956 16.25 6.45789 14.6583 6.45789 12.7083C6.45789 12.3667 6.74123 12.0833 7.08289 12.0833C7.42456 12.0833 7.70789 12.3667 7.70789 12.7083C7.70789 13.975 8.73289 15 9.99956 15C11.2662 15 12.2912 13.975 12.2912 12.7083C12.2912 12.3667 12.5746 12.0833 12.9162 12.0833C13.2579 12.0833 13.5412 12.3667 13.5412 12.7083C13.5412 14.6583 11.9496 16.25 9.99956 16.25Z" fill="white"/>
</svg>
